<svg xmlns="http://www.w3.org/2000/svg" version="1.1" width="3300" height="2000"><g id="Notes"><style>
    text {
      font-family: monospace;
      text-anchor: middle;
    }
    text.emphasis {
      font-weight:bold;
    }
    text.lanchor {
      text-anchor: start;
    }
  </style><rect height="2200" id="artboard" fill="white" width="3300" x="0" y="0"/><line id="" style="fill:none;stroke:black;stroke-width:0.5;" x1="263" x2="3036" y1="292" y2="292"/><text class="lanchor emphasis" transform="matrix(1 0 0 1 263 322)">Weight/Scale Variations</text><text transform="matrix(1 0 0 1 559.711 322)">Ultralight</text><text transform="matrix(1 0 0 1 856.422 322)">Thin</text><text transform="matrix(1 0 0 1 1153.13 322)">Light</text><text transform="matrix(1 0 0 1 1449.84 322)">Regular</text><text transform="matrix(1 0 0 1 1746.56 322)">Medium</text><text transform="matrix(1 0 0 1 2043.27 322)">Semibold</text><text transform="matrix(1 0 0 1 2339.98 322)">Bold</text><text transform="matrix(1 0 0 1 2636.69 322)">Heavy</text><text transform="matrix(1 0 0 1 2933.4 322)">Black</text><text id="template-version" style="text-anchor: end;" transform="matrix(1 0 0 1 3036 1933)">Template v.1.0</text><text class="lanchor" transform="matrix(1 0 0 1 263 726)">Small</text><text class="lanchor" transform="matrix(1 0 0 1 263 1156)">Medium</text><text class="lanchor" transform="matrix(1 0 0 1 263 1586)">Large</text></g><g id="Guides"><g id="H-reference" style="fill:#27AAE1;stroke:none;" transform="matrix(1 0 0 1 339 696)"><path d="M 54.9316 0 L 57.666 0 L 30.5664 -70.459 L 28.0762 -70.459 L 0.976562 0 L 3.66211 0 L 12.9395 -24.4629 L 45.7031 -24.4629 Z M 29.1992 -67.0898 L 29.4434 -67.0898 L 44.8242 -26.709 L 13.8184 -26.709 Z"/></g><line id="Baseline-S" style="fill:none;stroke:#27AAE1;opacity:1;stroke-width:0.577;" x1="263" x2="3036" y1="696" y2="696"/><line id="Capline-S" style="fill:none;stroke:#27AAE1;opacity:1;stroke-width:0.577;" x1="263" x2="3036" y1="625.541" y2="625.541"/><g id="H-reference" style="fill:#27AAE1;stroke:none;" transform="matrix(1 0 0 1 339 1126)"><path d="M 54.9316 0 L 57.666 0 L 30.5664 -70.459 L 28.0762 -70.459 L 0.976562 0 L 3.66211 0 L 12.9395 -24.4629 L 45.7031 -24.4629 Z M 29.1992 -67.0898 L 29.4434 -67.0898 L 44.8242 -26.709 L 13.8184 -26.709 Z"/></g><line id="Baseline-M" style="fill:none;stroke:#27AAE1;opacity:1;stroke-width:0.577;" x1="263" x2="3036" y1="1126" y2="1126"/><line id="Capline-M" style="fill:none;stroke:#27AAE1;opacity:1;stroke-width:0.577;" x1="263" x2="3036" y1="1055.54" y2="1055.54"/><g id="H-reference" style="fill:#27AAE1;stroke:none;" transform="matrix(1 0 0 1 339 1556)"><path d="M 54.9316 0 L 57.666 0 L 30.5664 -70.459 L 28.0762 -70.459 L 0.976562 0 L 3.66211 0 L 12.9395 -24.4629 L 45.7031 -24.4629 Z M 29.1992 -67.0898 L 29.4434 -67.0898 L 44.8242 -26.709 L 13.8184 -26.709 Z"/></g><line id="Baseline-L" style="fill:none;stroke:#27AAE1;opacity:1;stroke-width:0.577;" x1="263" x2="3036" y1="1556" y2="1556"/><line id="Capline-L" style="fill:none;stroke:#27AAE1;opacity:1;stroke-width:0.577;" x1="263" x2="3036" y1="1485.54" y2="1485.54"/><rect height="119.336" id="left-margin" style="fill:darkred;stroke:none;opacity:0.4;" width="12.4512" x="1394.06" y="1030.79"/><rect height="119.336" id="right-margin" style="fill:darkgreen;stroke:none;opacity:0.4;" width="12.4512" x="1502.5112" y="1030.79"/><rect x="1406.5112" y="1045" width="96" height="96" fill="none" stroke="blue" stroke-dasharray="5"/><rect x="1394.06" y="1030.79" width="120.9024" height="119.336" fill="none" stroke="blue"/></g><g id="Symbols"><g id="Bold-L" transform="matrix(1 0 0 1 2266 1556)"><path d="M99.975 -42.809 Q103.926 -42.809 106.788 -45.671 Q109.65 -48.533 109.65 -52.484 Q109.65 -56.434 106.788 -59.297 Q103.926 -62.159 99.975 -62.159 Q96.024 -62.159 93.243 -59.353 Q90.461 -56.548 90.461 -52.541 Q90.461 -48.533 93.236 -45.671 Q96.011 -42.809 99.975 -42.809 Z M54.825 -42.809 Q58.776 -42.809 61.557 -45.614 Q64.339 -48.419 64.339 -52.427 Q64.339 -56.434 61.564 -59.297 Q58.789 -62.159 54.825 -62.159 Q50.874 -62.159 48.012 -59.297 Q45.15 -56.434 45.15 -52.484 Q45.15 -48.533 48.012 -45.671 Q50.874 -42.809 54.825 -42.809 Z M77.428 -25.071 Q66.596 -25.071 57.808 -19.024 Q49.02 -12.977 44.828 -2.98 H55.631 Q58.856 -8.946 64.831 -12.171 Q70.805 -15.396 77.569 -15.396 Q84.334 -15.396 90.219 -12.091 Q96.105 -8.785 99.491 -2.98 H109.972 Q105.941 -13.139 97.101 -19.105 Q88.26 -25.071 77.428 -25.071 Z M77.409 33.301 Q63.21 33.301 50.713 27.98 Q38.216 22.659 28.864 13.306 Q19.511 3.954 14.19 -8.534 Q8.869 -21.022 8.869 -35.221 Q8.869 -49.42 14.19 -61.917 Q19.511 -74.414 28.838 -83.775 Q38.166 -93.136 50.666 -98.529 Q63.165 -103.922 77.378 -103.922 Q91.59 -103.922 104.106 -98.542 Q116.622 -93.161 125.971 -83.821 Q135.32 -74.481 140.706 -61.965 Q146.093 -49.448 146.093 -35.217 Q146.093 -20.995 140.699 -8.501 Q135.306 3.993 125.945 13.326 Q116.584 22.659 104.096 27.98 Q91.608 33.301 77.409 33.301 Z M77.4 18.144 Q99.713 18.144 115.243 2.613 Q130.774 -12.917 130.774 -35.23 Q130.774 -57.543 115.243 -73.073 Q99.713 -88.604 77.4 -88.604 Q55.087 -88.604 39.557 -73.073 Q24.026 -57.543 24.026 -35.23 Q24.026 -12.917 39.557 2.613 Q55.087 18.144 77.4 18.144 Z"/></g><g id="Semibold-L" transform="matrix(1 0 0 1 1970.27 1556)"><path d="M100.396 -43.229 Q104.206 -43.229 106.928 -45.951 Q109.65 -48.673 109.65 -52.484 Q109.65 -56.294 106.928 -59.016 Q104.206 -61.738 100.396 -61.738 Q96.585 -61.738 93.909 -59.048 Q91.232 -56.358 91.232 -52.516 Q91.232 -48.673 93.905 -45.951 Q96.578 -43.229 100.396 -43.229 Z M54.404 -43.229 Q58.215 -43.229 60.891 -45.919 Q63.568 -48.609 63.568 -52.451 Q63.568 -56.294 60.895 -59.016 Q58.222 -61.738 54.404 -61.738 Q50.594 -61.738 47.872 -59.016 Q45.15 -56.294 45.15 -52.484 Q45.15 -48.673 47.872 -45.951 Q50.594 -43.229 54.404 -43.229 Z M77.428 -25.071 Q66.596 -25.071 57.808 -19.024 Q49.02 -12.977 44.828 -2.98 H54.65 Q58.015 -9.297 64.208 -12.732 Q70.402 -16.167 77.543 -16.167 Q84.684 -16.167 90.78 -12.651 Q96.876 -9.136 100.403 -2.98 H109.972 Q105.941 -13.139 97.101 -19.105 Q88.26 -25.071 77.428 -25.071 Z M77.405 31.549 Q63.561 31.549 51.379 26.333 Q39.198 21.116 30.126 12.044 Q21.054 2.972 15.837 -9.204 Q10.621 -21.381 10.621 -35.225 Q10.621 -49.069 15.837 -61.251 Q21.054 -73.432 30.111 -82.509 Q39.169 -91.586 51.352 -96.843 Q63.535 -102.1 77.387 -102.1 Q91.239 -102.1 103.432 -96.85 Q115.624 -91.6 124.694 -82.535 Q133.764 -73.471 139.017 -61.278 Q144.27 -49.085 144.27 -35.222 Q144.27 -21.365 139.013 -9.185 Q133.756 2.994 124.679 12.055 Q115.602 21.116 103.426 26.333 Q91.249 31.549 77.405 31.549 Z M77.4 18.775 Q99.993 18.775 115.699 3.069 Q131.405 -12.637 131.405 -35.23 Q131.405 -57.823 115.699 -73.529 Q99.993 -89.235 77.4 -89.235 Q54.807 -89.235 39.101 -73.529 Q23.395 -57.823 23.395 -35.23 Q23.395 -12.637 39.101 3.069 Q54.807 18.775 77.4 18.775 Z"/></g><g id="Medium-L" transform="matrix(1 0 0 1 1674.31 1556)"><path d="M100.711 -43.545 Q104.416 -43.545 107.033 -46.162 Q109.65 -48.779 109.65 -52.484 Q109.65 -56.189 107.033 -58.806 Q104.416 -61.423 100.711 -61.423 Q97.006 -61.423 94.408 -58.819 Q91.811 -56.216 91.811 -52.497 Q91.811 -48.779 94.407 -46.162 Q97.003 -43.545 100.711 -43.545 Z M54.089 -43.545 Q57.794 -43.545 60.392 -46.148 Q62.989 -48.751 62.989 -52.47 Q62.989 -56.189 60.393 -58.806 Q57.797 -61.423 54.089 -61.423 Q50.384 -61.423 47.767 -58.806 Q45.15 -56.189 45.15 -52.484 Q45.15 -48.779 47.767 -46.162 Q50.384 -43.545 54.089 -43.545 Z M77.428 -25.071 Q66.596 -25.071 57.808 -19.024 Q49.02 -12.977 44.828 -2.98 H53.914 Q57.384 -9.56 63.741 -13.153 Q70.099 -16.746 77.523 -16.746 Q84.947 -16.746 91.201 -13.072 Q97.455 -9.398 101.086 -2.98 H109.972 Q105.941 -13.139 97.101 -19.105 Q88.26 -25.071 77.428 -25.071 Z M77.402 30.234 Q63.823 30.234 51.879 25.097 Q39.934 19.96 31.072 11.098 Q22.21 2.236 17.073 -9.707 Q11.936 -21.649 11.936 -35.228 Q11.936 -48.807 17.073 -60.751 Q22.21 -72.696 31.066 -81.56 Q39.922 -90.424 51.867 -95.578 Q63.813 -100.733 77.395 -100.733 Q90.977 -100.733 102.926 -95.581 Q114.875 -90.43 123.736 -81.571 Q132.597 -72.712 137.75 -60.763 Q142.903 -48.813 142.903 -35.227 Q142.903 -21.643 137.748 -9.699 Q132.594 2.245 123.73 11.103 Q114.866 19.96 102.923 25.097 Q90.981 30.234 77.402 30.234 Z M77.4 19.248 Q100.204 19.248 116.041 3.411 Q131.878 -12.426 131.878 -35.23 Q131.878 -58.034 116.041 -73.871 Q100.204 -89.708 77.4 -89.708 Q54.596 -89.708 38.759 -73.871 Q22.922 -58.034 22.922 -35.23 Q22.922 -12.426 38.759 3.411 Q54.596 19.248 77.4 19.248 Z"/></g><g id="Regular-L" transform="matrix(1 0 0 1 1378.56 1556)"><path d="M100.943 -43.776 Q104.571 -43.776 107.11 -46.316 Q109.65 -48.856 109.65 -52.484 Q109.65 -56.112 107.11 -58.652 Q104.571 -61.191 100.943 -61.191 Q97.314 -61.191 94.775 -58.652 Q92.235 -56.112 92.235 -52.484 Q92.235 -48.856 94.775 -46.316 Q97.314 -43.776 100.943 -43.776 Z M53.858 -43.776 Q57.486 -43.776 60.025 -46.316 Q62.565 -48.856 62.565 -52.484 Q62.565 -56.112 60.025 -58.652 Q57.486 -61.191 53.858 -61.191 Q50.229 -61.191 47.69 -58.652 Q45.15 -56.112 45.15 -52.484 Q45.15 -48.856 47.69 -46.316 Q50.229 -43.776 53.858 -43.776 Z M77.428 -25.071 Q66.596 -25.071 57.808 -19.024 Q49.02 -12.977 44.828 -2.98 H53.374 Q56.921 -9.752 63.399 -13.461 Q69.877 -17.17 77.509 -17.17 Q85.14 -17.17 91.509 -13.381 Q97.879 -9.591 101.588 -2.98 H109.972 Q105.941 -13.139 97.101 -19.105 Q88.26 -25.071 77.428 -25.071 Z M77.4 29.27 Q64.016 29.27 52.245 24.191 Q40.474 19.111 31.766 10.404 Q23.059 1.696 17.979 -10.075 Q12.9 -21.846 12.9 -35.23 Q12.9 -48.614 17.979 -60.385 Q23.059 -72.156 31.766 -80.864 Q40.474 -89.571 52.245 -94.651 Q64.016 -99.73 77.4 -99.73 Q90.784 -99.73 102.555 -94.651 Q114.326 -89.571 123.034 -80.864 Q131.741 -72.156 136.821 -60.385 Q141.9 -48.614 141.9 -35.23 Q141.9 -21.846 136.821 -10.075 Q131.741 1.696 123.034 10.404 Q114.326 19.111 102.555 24.191 Q90.784 29.27 77.4 29.27 Z M77.4 19.595 Q100.358 19.595 116.292 3.662 Q132.225 -12.272 132.225 -35.23 Q132.225 -58.188 116.292 -74.122 Q100.358 -90.055 77.4 -90.055 Q54.442 -90.055 38.508 -74.122 Q22.575 -58.188 22.575 -35.23 Q22.575 -12.272 38.508 3.662 Q54.442 19.595 77.4 19.595 Z"/></g><g id="Light-L" transform="matrix(1 0 0 1 1082.77 1556)"><path d="M100.089 -44.458 Q103.268 -44.458 105.529 -46.734 Q107.789 -49.009 107.789 -52.188 Q107.789 -55.368 105.514 -57.628 Q103.239 -59.889 100.059 -59.889 Q96.88 -59.889 94.62 -57.614 Q92.359 -55.338 92.359 -52.159 Q92.359 -48.98 94.634 -46.719 Q96.909 -44.458 100.089 -44.458 Z M54.741 -44.458 Q57.92 -44.458 60.18 -46.734 Q62.441 -49.009 62.441 -52.188 Q62.441 -55.368 60.166 -57.628 Q57.891 -59.889 54.711 -59.889 Q51.532 -59.889 49.271 -57.614 Q47.011 -55.338 47.011 -52.159 Q47.011 -48.98 49.286 -46.719 Q51.561 -44.458 54.741 -44.458 Z M77.439 -25.195 Q67.424 -25.195 59.183 -19.676 Q50.943 -14.156 46.874 -4.965 H53.87 Q57.417 -11.489 63.74 -15.136 Q70.063 -18.783 77.478 -18.783 Q84.892 -18.783 91.137 -15.086 Q97.383 -11.39 101.091 -4.965 H107.926 Q103.956 -14.255 95.705 -19.725 Q87.454 -25.195 77.439 -25.195 Z M77.411 26.045 Q64.698 26.045 53.513 21.22 Q42.327 16.396 34.053 8.125 Q25.779 -0.146 20.952 -11.326 Q16.125 -22.507 16.125 -35.219 Q16.125 -47.932 20.95 -59.117 Q25.774 -70.303 34.045 -78.577 Q42.316 -86.851 53.496 -91.678 Q64.677 -96.505 77.389 -96.505 Q90.102 -96.505 101.287 -91.68 Q112.473 -86.856 120.747 -78.585 Q129.021 -70.314 133.848 -59.134 Q138.675 -47.953 138.675 -35.241 Q138.675 -22.528 133.85 -11.343 Q129.026 -0.157 120.755 8.117 Q112.484 16.391 101.304 21.218 Q90.123 26.045 77.411 26.045 Z M77.394 18.727 Q99.986 18.727 115.671 3.047 Q131.357 -12.632 131.357 -35.224 Q131.357 -57.816 115.677 -73.501 Q99.998 -89.187 77.406 -89.187 Q54.814 -89.187 39.129 -73.507 Q23.443 -57.828 23.443 -35.236 Q23.443 -12.644 39.123 3.041 Q54.802 18.727 77.394 18.727 Z"/></g><g id="Thin-L" transform="matrix(1 0 0 1 787.282 1556)"><path d="M99.235 -45.141 Q101.966 -45.141 103.947 -47.151 Q105.929 -49.162 105.929 -51.893 Q105.929 -54.623 103.918 -56.605 Q101.907 -58.586 99.177 -58.586 Q96.446 -58.586 94.465 -56.576 Q92.483 -54.565 92.483 -51.834 Q92.483 -49.104 94.494 -47.122 Q96.504 -45.141 99.235 -45.141 Z M55.623 -45.141 Q58.354 -45.141 60.335 -47.151 Q62.317 -49.162 62.317 -51.893 Q62.317 -54.623 60.306 -56.605 Q58.296 -58.586 55.565 -58.586 Q52.834 -58.586 50.853 -56.576 Q48.871 -54.565 48.871 -51.834 Q48.871 -49.104 50.882 -47.122 Q52.893 -45.141 55.623 -45.141 Z M77.45 -25.319 Q68.252 -25.319 60.559 -20.327 Q52.865 -15.334 48.921 -6.949 H54.366 Q57.914 -13.226 64.081 -16.81 Q70.249 -20.395 77.446 -20.395 Q84.644 -20.395 90.765 -16.792 Q96.886 -13.188 100.595 -6.949 H105.879 Q101.972 -15.371 94.31 -20.345 Q86.647 -25.319 77.45 -25.319 Z M77.422 22.82 Q65.381 22.82 54.78 18.25 Q44.18 13.681 36.339 5.847 Q28.498 -1.987 23.924 -12.577 Q19.35 -23.168 19.35 -35.208 Q19.35 -47.249 23.92 -57.85 Q28.489 -68.45 36.323 -76.291 Q44.157 -84.132 54.747 -88.706 Q65.338 -93.28 77.378 -93.28 Q89.419 -93.28 100.02 -88.71 Q110.62 -84.141 118.461 -76.307 Q126.302 -68.473 130.876 -57.883 Q135.45 -47.292 135.45 -35.252 Q135.45 -23.211 130.88 -12.61 Q126.311 -2.01 118.477 5.831 Q110.643 13.672 100.053 18.246 Q89.462 22.82 77.422 22.82 Z M77.388 17.858 Q99.614 17.858 115.051 2.433 Q130.488 -12.992 130.488 -35.218 Q130.488 -57.444 115.063 -72.881 Q99.638 -88.318 77.412 -88.318 Q55.186 -88.318 39.749 -72.893 Q24.312 -57.468 24.312 -35.242 Q24.312 -13.016 39.737 2.421 Q55.162 17.858 77.388 17.858 Z"/></g><g id="Ultralight-L" transform="matrix(1 0 0 1 491.205 1556)"><path d="M98.723 -45.55 Q101.184 -45.55 102.998 -47.402 Q104.812 -49.254 104.812 -51.715 Q104.812 -54.177 102.961 -55.991 Q101.108 -57.805 98.647 -57.805 Q96.186 -57.805 94.372 -55.953 Q92.558 -54.101 92.558 -51.64 Q92.558 -49.178 94.409 -47.364 Q96.262 -45.55 98.723 -45.55 Z M56.153 -45.55 Q58.614 -45.55 60.428 -47.402 Q62.242 -49.254 62.242 -51.715 Q62.242 -54.177 60.391 -55.991 Q58.538 -57.805 56.077 -57.805 Q53.616 -57.805 51.802 -55.953 Q49.988 -54.101 49.988 -51.64 Q49.988 -49.178 51.839 -47.364 Q53.692 -45.55 56.153 -45.55 Z M77.456 -25.394 Q68.749 -25.394 61.384 -20.717 Q54.019 -16.041 50.149 -8.14 H54.664 Q58.211 -14.267 64.286 -17.815 Q70.361 -21.362 77.428 -21.362 Q84.495 -21.362 90.542 -17.815 Q96.589 -14.267 100.297 -8.14 H104.651 Q100.781 -16.041 93.472 -20.717 Q86.164 -25.394 77.456 -25.394 Z M77.428 20.885 Q65.79 20.885 55.541 16.468 Q45.292 12.051 37.711 4.48 Q30.13 -3.092 25.707 -13.328 Q21.285 -23.564 21.285 -35.202 Q21.285 -46.84 25.702 -57.089 Q30.119 -67.338 37.69 -74.919 Q45.262 -82.5 55.498 -86.923 Q65.734 -91.345 77.372 -91.345 Q89.01 -91.345 99.259 -86.928 Q109.508 -82.511 117.089 -74.94 Q124.67 -67.368 129.093 -57.132 Q133.515 -46.896 133.515 -35.258 Q133.515 -23.62 129.098 -13.371 Q124.681 -3.122 117.11 4.459 Q109.538 12.04 99.302 16.463 Q89.066 20.885 77.428 20.885 Z M77.384 17.338 Q99.39 17.338 114.679 2.065 Q129.968 -13.208 129.968 -35.214 Q129.968 -57.22 114.695 -72.509 Q99.422 -87.797 77.416 -87.797 Q55.41 -87.797 40.121 -72.525 Q24.832 -57.252 24.832 -35.246 Q24.832 -13.24 40.105 2.049 Q55.378 17.338 77.384 17.338 Z"/></g><g id="Bold-M" transform="matrix(1 0 0 1 2281.8 1126)"><path d="M76.5 -39.23 Q80.125 -39.23 82.562 -41.667 Q85 -44.105 85 -47.73 Q85 -51.355 82.562 -53.792 Q80.125 -56.23 76.562 -56.23 Q73 -56.23 70.562 -53.759 Q68.125 -51.289 68.125 -47.759 Q68.125 -44.23 70.568 -41.73 Q73.01 -39.23 76.5 -39.23 Z M43.438 -39.23 Q47 -39.23 49.438 -41.701 Q51.875 -44.171 51.875 -47.701 Q51.875 -51.23 49.432 -53.73 Q46.99 -56.23 43.5 -56.23 Q39.875 -56.23 37.438 -53.792 Q35 -51.355 35 -47.73 Q35 -44.105 37.438 -41.667 Q39.875 -39.23 43.438 -39.23 Z M60 -27.73 Q51.5 -27.73 44.562 -22.917 Q37.625 -18.105 34.5 -10.23 H45 Q47.5 -14.105 51.5 -16.23 Q55.5 -18.355 60 -18.355 Q64.5 -18.355 68.5 -16.23 Q72.5 -14.105 75 -10.23 H85.5 Q82.375 -18.105 75.438 -22.917 Q68.5 -27.73 60 -27.73 Z M59.99 19.02 Q48.75 19.02 38.875 14.77 Q29 10.52 21.625 3.145 Q14.25 -4.23 10 -14.115 Q5.75 -24.001 5.75 -35.24 Q5.75 -46.48 10 -56.355 Q14.25 -66.23 21.625 -73.605 Q29 -80.98 38.885 -85.23 Q48.771 -89.48 60.01 -89.48 Q71.25 -89.48 81.125 -85.23 Q91 -80.98 98.375 -73.605 Q105.75 -66.23 110 -56.345 Q114.25 -46.459 114.25 -35.22 Q114.25 -23.98 110 -14.105 Q105.75 -4.23 98.375 3.145 Q91 10.52 81.115 14.77 Q71.229 19.02 59.99 19.02 Z M60 3.27 Q76 3.27 87.25 -7.98 Q98.5 -19.23 98.5 -35.23 Q98.5 -51.23 87.25 -62.48 Q76 -73.73 60 -73.73 Q44 -73.73 32.75 -62.48 Q21.5 -51.23 21.5 -35.23 Q21.5 -19.23 32.75 -7.98 Q44 3.27 60 3.27 Z"/></g><g id="Semibold-M" transform="matrix(1 0 0 1 1985.97 1126)"><path d="M76.935 -39.665 Q80.342 -39.665 82.671 -41.994 Q85 -44.322 85 -47.73 Q85 -51.138 82.671 -53.466 Q80.342 -55.795 76.97 -55.795 Q73.598 -55.795 71.269 -53.448 Q68.94 -51.1 68.94 -47.747 Q68.94 -44.393 71.272 -42.029 Q73.604 -39.665 76.935 -39.665 Z M43.03 -39.665 Q46.402 -39.665 48.731 -42.012 Q51.06 -44.36 51.06 -47.713 Q51.06 -51.067 48.728 -53.431 Q46.396 -55.795 43.065 -55.795 Q39.658 -55.795 37.329 -53.466 Q35 -51.138 35 -47.73 Q35 -44.322 37.329 -41.994 Q39.658 -39.665 43.03 -39.665 Z M60 -27.73 Q51.5 -27.73 44.562 -22.917 Q37.625 -18.105 34.5 -10.23 H44.022 Q46.63 -14.431 50.875 -16.801 Q55.12 -19.17 60 -19.17 Q64.88 -19.17 69.125 -16.801 Q73.37 -14.431 75.978 -10.23 H85.5 Q82.375 -18.105 75.438 -22.917 Q68.5 -27.73 60 -27.73 Z M59.994 17.172 Q49.13 17.172 39.581 13.058 Q30.032 8.944 22.929 1.841 Q15.826 -5.262 11.712 -14.817 Q7.598 -24.372 7.598 -35.236 Q7.598 -46.1 11.712 -55.648 Q15.826 -65.197 22.929 -72.301 Q30.032 -79.404 39.587 -83.518 Q49.142 -87.632 60.006 -87.632 Q70.87 -87.632 80.418 -83.518 Q89.968 -79.404 97.071 -72.301 Q104.174 -65.197 108.288 -55.643 Q112.402 -46.088 112.402 -35.224 Q112.402 -24.36 108.288 -14.811 Q104.174 -5.262 97.071 1.841 Q89.968 8.944 80.413 13.058 Q70.858 17.172 59.994 17.172 Z M60 3.922 Q76.326 3.922 87.739 -7.491 Q99.152 -18.904 99.152 -35.23 Q99.152 -51.556 87.739 -62.969 Q76.326 -74.382 60 -74.382 Q43.674 -74.382 32.261 -62.969 Q20.848 -51.556 20.848 -35.23 Q20.848 -18.904 32.261 -7.491 Q43.674 3.922 60 3.922 Z"/></g><g id="Medium-M" transform="matrix(1 0 0 1 1689.91 1126)"><path d="M77.261 -39.991 Q80.505 -39.991 82.753 -42.238 Q85 -44.485 85 -47.73 Q85 -50.975 82.753 -53.222 Q80.505 -55.469 77.276 -55.469 Q74.046 -55.469 71.799 -53.214 Q69.552 -50.959 69.552 -47.737 Q69.552 -44.515 71.8 -42.253 Q74.049 -39.991 77.261 -39.991 Z M42.724 -39.991 Q45.954 -39.991 48.201 -42.246 Q50.448 -44.501 50.448 -47.723 Q50.448 -50.945 48.2 -53.207 Q45.951 -55.469 42.739 -55.469 Q39.495 -55.469 37.247 -53.222 Q35 -50.975 35 -47.73 Q35 -44.485 37.247 -42.238 Q39.495 -39.991 42.724 -39.991 Z M60 -27.73 Q51.5 -27.73 44.562 -22.917 Q37.625 -18.105 34.5 -10.23 H43.288 Q45.978 -14.676 50.406 -17.229 Q54.834 -19.782 60 -19.782 Q65.166 -19.782 69.594 -17.229 Q74.022 -14.676 76.712 -10.23 H85.5 Q82.375 -18.105 75.438 -22.917 Q68.5 -27.73 60 -27.73 Z M59.998 15.786 Q49.416 15.786 40.111 11.774 Q30.807 7.762 23.908 0.862 Q17.008 -6.037 12.996 -15.344 Q8.984 -24.651 8.984 -35.232 Q8.984 -45.814 12.996 -55.119 Q17.008 -64.423 23.908 -71.322 Q30.807 -78.222 40.114 -82.234 Q49.421 -86.246 60.002 -86.246 Q70.584 -86.246 79.889 -82.234 Q89.193 -78.222 96.092 -71.322 Q102.992 -64.423 107.004 -55.116 Q111.016 -45.809 111.016 -35.227 Q111.016 -24.646 107.004 -15.341 Q102.992 -6.037 96.092 0.862 Q89.193 7.762 79.886 11.774 Q70.579 15.786 59.998 15.786 Z M60 4.411 Q76.571 4.411 88.106 -7.124 Q99.641 -18.659 99.641 -35.23 Q99.641 -51.801 88.106 -63.336 Q76.571 -74.871 60 -74.871 Q43.429 -74.871 31.894 -63.336 Q20.359 -51.801 20.359 -35.23 Q20.359 -18.659 31.894 -7.124 Q43.429 4.411 60 4.411 Z"/></g><g id="Regular-M" transform="matrix(1 0 0 1 1394.06 1126)"><path d="M77.5 -40.23 Q80.625 -40.23 82.812 -42.417 Q85 -44.605 85 -47.73 Q85 -50.855 82.812 -53.042 Q80.625 -55.23 77.5 -55.23 Q74.375 -55.23 72.188 -53.042 Q70 -50.855 70 -47.73 Q70 -44.605 72.188 -42.417 Q74.375 -40.23 77.5 -40.23 Z M42.5 -40.23 Q45.625 -40.23 47.812 -42.417 Q50 -44.605 50 -47.73 Q50 -50.855 47.812 -53.042 Q45.625 -55.23 42.5 -55.23 Q39.375 -55.23 37.188 -53.042 Q35 -50.855 35 -47.73 Q35 -44.605 37.188 -42.417 Q39.375 -40.23 42.5 -40.23 Z M60 -27.73 Q51.5 -27.73 44.562 -22.917 Q37.625 -18.105 34.5 -10.23 H42.75 Q45.5 -14.855 50.062 -17.542 Q54.625 -20.23 60 -20.23 Q65.375 -20.23 69.938 -17.542 Q74.5 -14.855 77.25 -10.23 H85.5 Q82.375 -18.105 75.438 -22.917 Q68.5 -27.73 60 -27.73 Z M60 14.77 Q49.625 14.77 40.5 10.833 Q31.375 6.895 24.625 0.145 Q17.875 -6.605 13.938 -15.73 Q10 -24.855 10 -35.23 Q10 -45.605 13.938 -54.73 Q17.875 -63.855 24.625 -70.605 Q31.375 -77.355 40.5 -81.292 Q49.625 -85.23 60 -85.23 Q70.375 -85.23 79.5 -81.292 Q88.625 -77.355 95.375 -70.605 Q102.125 -63.855 106.062 -54.73 Q110 -45.605 110 -35.23 Q110 -24.855 106.062 -15.73 Q102.125 -6.605 95.375 0.145 Q88.625 6.895 79.5 10.833 Q70.375 14.77 60 14.77 Z M60 4.77 Q76.75 4.77 88.375 -6.855 Q100 -18.48 100 -35.23 Q100 -51.98 88.375 -63.605 Q76.75 -75.23 60 -75.23 Q43.25 -75.23 31.625 -63.605 Q20 -51.98 20 -35.23 Q20 -18.48 31.625 -6.855 Q43.25 4.77 60 4.77 Z"/></g><g id="Light-M" transform="matrix(1 0 0 1 1098.18 1126)"><path d="M77.031 -41.192 Q79.76 -41.192 81.659 -43.102 Q83.558 -45.012 83.558 -47.741 Q83.558 -50.47 81.647 -52.369 Q79.737 -54.268 77.008 -54.268 Q74.279 -54.268 72.38 -52.358 Q70.481 -50.448 70.481 -47.719 Q70.481 -44.99 72.391 -43.091 Q74.302 -41.192 77.031 -41.192 Z M42.992 -41.192 Q45.721 -41.192 47.62 -43.102 Q49.519 -45.012 49.519 -47.741 Q49.519 -50.47 47.609 -52.369 Q45.699 -54.268 42.969 -54.268 Q40.24 -54.268 38.341 -52.358 Q36.442 -50.448 36.442 -47.719 Q36.442 -44.99 38.353 -43.091 Q40.263 -41.192 42.992 -41.192 Z M60 -27.73 Q52.173 -27.73 45.692 -23.35 Q39.212 -18.97 36.135 -11.769 H42.75 Q45.5 -16.394 50.062 -19.081 Q54.625 -21.769 60 -21.769 Q65.375 -21.769 69.938 -19.081 Q74.5 -16.394 77.25 -11.769 H83.865 Q80.788 -18.97 74.308 -23.35 Q67.827 -27.73 60 -27.73 Z M60.008 12.27 Q50.154 12.27 41.483 8.53 Q32.812 4.79 26.398 -1.621 Q19.983 -8.033 16.242 -16.7 Q12.5 -25.367 12.5 -35.222 Q12.5 -45.076 16.24 -53.747 Q19.98 -62.418 26.391 -68.832 Q32.803 -75.247 41.47 -78.988 Q50.137 -82.73 59.992 -82.73 Q69.846 -82.73 78.517 -78.99 Q87.188 -75.25 93.602 -68.839 Q100.017 -62.427 103.758 -53.76 Q107.5 -45.093 107.5 -35.238 Q107.5 -25.384 103.76 -16.713 Q100.02 -8.042 93.609 -1.628 Q87.197 4.787 78.53 8.528 Q69.863 12.27 60.008 12.27 Z M60 4.77 Q76.75 4.77 88.375 -6.855 Q100 -18.48 100 -35.23 Q100 -51.98 88.375 -63.605 Q76.75 -75.23 60 -75.23 Q43.25 -75.23 31.625 -63.605 Q20 -51.98 20 -35.23 Q20 -18.48 31.625 -6.855 Q43.25 4.77 60 4.77 Z"/></g><g id="Thin-M" transform="matrix(1 0 0 1 802.565 1126)"><path d="M76.561 -42.153 Q78.894 -42.153 80.505 -43.786 Q82.115 -45.419 82.115 -47.753 Q82.115 -50.086 80.482 -51.696 Q78.849 -53.307 76.516 -53.307 Q74.183 -53.307 72.572 -51.674 Q70.962 -50.04 70.962 -47.707 Q70.962 -45.374 72.595 -43.764 Q74.228 -42.153 76.561 -42.153 Z M43.484 -42.153 Q45.817 -42.153 47.428 -43.786 Q49.038 -45.419 49.038 -47.753 Q49.038 -50.086 47.405 -51.696 Q45.772 -53.307 43.439 -53.307 Q41.106 -53.307 39.495 -51.674 Q37.885 -50.04 37.885 -47.707 Q37.885 -45.374 39.518 -43.764 Q41.151 -42.153 43.484 -42.153 Z M60 -27.73 Q52.846 -27.73 46.822 -23.783 Q40.798 -19.836 37.769 -13.307 H42.75 Q45.5 -17.932 50.062 -20.619 Q54.625 -23.307 60 -23.307 Q65.375 -23.307 69.938 -20.619 Q74.5 -17.932 77.25 -13.307 H82.231 Q79.202 -19.836 73.178 -23.783 Q67.154 -27.73 60 -27.73 Z M60.017 9.77 Q50.683 9.77 42.465 6.228 Q34.248 2.685 28.17 -3.388 Q22.091 -9.46 18.546 -17.67 Q15 -25.879 15 -35.213 Q15 -44.547 18.542 -52.764 Q22.085 -60.982 28.158 -67.06 Q34.23 -73.138 42.44 -76.684 Q50.649 -80.23 59.983 -80.23 Q69.317 -80.23 77.534 -76.688 Q85.752 -73.145 91.83 -67.072 Q97.909 -61 101.454 -52.79 Q105 -44.581 105 -35.247 Q105 -25.913 101.458 -17.695 Q97.915 -9.478 91.842 -3.4 Q85.77 2.679 77.56 6.224 Q69.351 9.77 60.017 9.77 Z M60 4.77 Q76.75 4.77 88.375 -6.855 Q100 -18.48 100 -35.23 Q100 -51.98 88.375 -63.605 Q76.75 -75.23 60 -75.23 Q43.25 -75.23 31.625 -63.605 Q20 -51.98 20 -35.23 Q20 -18.48 31.625 -6.855 Q43.25 4.77 60 4.77 Z"/></g><g id="Ultralight-M" transform="matrix(1 0 0 1 506.415 1126)"><path d="M76.279 -42.73 Q78.375 -42.73 79.812 -44.197 Q81.25 -45.664 81.25 -47.759 Q81.25 -49.855 79.783 -51.292 Q78.316 -52.73 76.221 -52.73 Q74.125 -52.73 72.688 -51.263 Q71.25 -49.796 71.25 -47.701 Q71.25 -45.605 72.717 -44.167 Q74.184 -42.73 76.279 -42.73 Z M43.779 -42.73 Q45.875 -42.73 47.312 -44.197 Q48.75 -45.664 48.75 -47.759 Q48.75 -49.855 47.283 -51.292 Q45.816 -52.73 43.721 -52.73 Q41.625 -52.73 40.188 -51.263 Q38.75 -49.796 38.75 -47.701 Q38.75 -45.605 40.217 -44.167 Q41.684 -42.73 43.779 -42.73 Z M60 -27.73 Q53.25 -27.73 47.5 -24.042 Q41.75 -20.355 38.75 -14.23 H42.75 Q45.5 -18.855 50.062 -21.542 Q54.625 -24.23 60 -24.23 Q65.375 -24.23 69.938 -21.542 Q74.5 -18.855 77.25 -14.23 H81.25 Q78.25 -20.355 72.5 -24.042 Q66.75 -27.73 60 -27.73 Z M60.022 8.27 Q51 8.27 43.055 4.846 Q35.11 1.422 29.233 -4.447 Q23.357 -10.317 19.928 -18.252 Q16.5 -26.186 16.5 -35.208 Q16.5 -44.23 19.924 -52.175 Q23.348 -60.12 29.217 -65.996 Q35.087 -71.873 43.022 -75.302 Q50.956 -78.73 59.978 -78.73 Q69 -78.73 76.945 -75.306 Q84.89 -71.882 90.766 -66.013 Q96.644 -60.143 100.072 -52.208 Q103.5 -44.273 103.5 -35.252 Q103.5 -26.23 100.076 -18.285 Q96.652 -10.34 90.783 -4.463 Q84.913 1.414 76.978 4.842 Q69.043 8.27 60.022 8.27 Z M60 4.77 Q76.75 4.77 88.375 -6.855 Q100 -18.48 100 -35.23 Q100 -51.98 88.375 -63.605 Q76.75 -75.23 60 -75.23 Q43.25 -75.23 31.625 -63.605 Q20 -51.98 20 -35.23 Q20 -18.48 31.625 -6.855 Q43.25 4.77 60 4.77 Z"/></g><g id="Bold-S" transform="matrix(1 0 0 1 2294.23 696)"><path d="M59.57 -36.808 Q62.43 -36.808 64.353 -38.731 Q66.276 -40.654 66.276 -43.514 Q66.276 -46.375 64.353 -48.298 Q62.43 -50.221 59.619 -50.221 Q56.808 -50.221 54.885 -48.272 Q52.962 -46.322 52.962 -43.538 Q52.962 -40.753 54.889 -38.78 Q56.816 -36.808 59.57 -36.808 Z M35.061 -36.808 Q37.872 -36.808 39.795 -38.757 Q41.718 -40.707 41.718 -43.491 Q41.718 -46.276 39.791 -48.248 Q37.864 -50.221 35.111 -50.221 Q32.25 -50.221 30.327 -48.298 Q28.404 -46.375 28.404 -43.514 Q28.404 -40.654 30.327 -38.731 Q32.25 -36.808 35.061 -36.808 Z M47.35 -30.496 Q40.535 -30.496 34.963 -26.65 Q29.39 -22.803 27.319 -16.294 H36.886 Q38.653 -18.986 41.468 -20.451 Q44.283 -21.916 47.34 -21.916 Q50.397 -21.916 53.212 -20.451 Q56.027 -18.986 57.794 -16.294 H67.361 Q65.29 -22.803 59.727 -26.65 Q54.165 -30.496 47.35 -30.496 Z M47.359 5.995 Q38.858 5.995 31.363 2.79 Q23.867 -0.415 18.196 -6.086 Q12.525 -11.757 9.32 -19.257 Q6.115 -26.756 6.115 -35.283 Q6.115 -43.81 9.32 -51.257 Q12.525 -58.703 18.196 -64.374 Q23.867 -70.045 31.367 -73.25 Q38.866 -76.455 47.393 -76.455 Q55.92 -76.455 63.367 -73.25 Q70.813 -70.045 76.484 -64.374 Q82.155 -58.703 85.36 -51.226 Q88.565 -43.75 88.565 -35.249 Q88.565 -26.748 85.36 -19.253 Q82.155 -11.757 76.484 -6.086 Q70.813 -0.415 63.336 2.79 Q55.86 5.995 47.359 5.995 Z M47.34 -5.642 Q59.57 -5.642 68.249 -14.321 Q76.928 -23 76.928 -35.23 Q76.928 -47.459 68.249 -56.138 Q59.57 -64.817 47.34 -64.817 Q35.111 -64.817 26.431 -56.138 Q17.753 -47.459 17.753 -35.23 Q17.753 -23 26.431 -14.321 Q35.111 -5.642 47.34 -5.642 Z"/></g><g id="Semibold-S" transform="matrix(1 0 0 1 1998.1 696)"><path d="M59.913 -37.151 Q62.601 -37.151 64.439 -38.989 Q66.276 -40.826 66.276 -43.514 Q66.276 -46.203 64.439 -48.04 Q62.601 -49.878 59.94 -49.878 Q57.28 -49.878 55.442 -48.026 Q53.605 -46.174 53.605 -43.528 Q53.605 -40.882 55.445 -39.016 Q57.284 -37.151 59.913 -37.151 Z M34.74 -37.151 Q37.4 -37.151 39.238 -39.003 Q41.075 -40.855 41.075 -43.501 Q41.075 -46.147 39.235 -48.013 Q37.396 -49.878 34.767 -49.878 Q32.079 -49.878 30.241 -48.04 Q28.404 -46.203 28.404 -43.514 Q28.404 -40.826 30.241 -38.989 Q32.079 -37.151 34.74 -37.151 Z M47.35 -30.496 Q40.535 -30.496 34.963 -26.65 Q29.39 -22.803 27.319 -16.294 H36.114 Q37.967 -19.244 40.975 -20.901 Q43.983 -22.559 47.34 -22.559 Q50.697 -22.559 53.705 -20.901 Q56.713 -19.244 58.566 -16.294 H67.361 Q65.29 -22.803 59.727 -26.65 Q54.165 -30.496 47.35 -30.496 Z M47.363 4.537 Q39.158 4.537 31.92 1.439 Q24.682 -1.659 19.225 -7.115 Q13.769 -12.572 10.671 -19.811 Q7.573 -27.049 7.573 -35.28 Q7.573 -43.51 10.671 -50.699 Q13.769 -57.888 19.225 -63.345 Q24.682 -68.801 31.921 -71.899 Q39.159 -74.997 47.39 -74.997 Q55.62 -74.997 62.809 -71.899 Q69.998 -68.801 75.455 -63.345 Q80.911 -57.888 84.009 -50.672 Q87.107 -43.457 87.107 -35.253 Q87.107 -27.048 84.009 -19.81 Q80.911 -12.572 75.455 -7.115 Q69.998 -1.659 62.782 1.439 Q55.567 4.537 47.363 4.537 Z M47.34 -5.128 Q59.827 -5.128 68.634 -13.936 Q77.442 -22.743 77.442 -35.23 Q77.442 -47.717 68.634 -56.524 Q59.827 -65.332 47.34 -65.332 Q34.853 -65.332 26.046 -56.524 Q17.238 -47.717 17.238 -35.23 Q17.238 -22.743 26.046 -13.936 Q34.853 -5.128 47.34 -5.128 Z"/></g><g id="Medium-S" transform="matrix(1 0 0 1 1701.85 696)"><path d="M60.17 -37.408 Q62.73 -37.408 64.503 -39.181 Q66.276 -40.954 66.276 -43.514 Q66.276 -46.075 64.503 -47.848 Q62.73 -49.621 60.182 -49.621 Q57.633 -49.621 55.86 -47.841 Q54.087 -46.062 54.087 -43.52 Q54.087 -40.978 55.861 -39.193 Q57.635 -37.408 60.17 -37.408 Z M34.498 -37.408 Q37.047 -37.408 38.82 -39.188 Q40.593 -40.967 40.593 -43.509 Q40.593 -46.051 38.819 -47.836 Q37.045 -49.621 34.51 -49.621 Q31.95 -49.621 30.177 -47.848 Q28.404 -46.075 28.404 -43.514 Q28.404 -40.954 30.177 -39.181 Q31.95 -37.408 34.498 -37.408 Z M47.35 -30.496 Q40.535 -30.496 34.963 -26.65 Q29.39 -22.803 27.319 -16.294 H35.535 Q37.452 -19.437 40.605 -21.239 Q43.757 -23.041 47.34 -23.041 Q50.923 -23.041 54.075 -21.239 Q57.228 -19.437 59.145 -16.294 H67.361 Q65.29 -22.803 59.727 -26.65 Q54.165 -30.496 47.35 -30.496 Z M47.365 3.444 Q39.384 3.444 32.338 0.426 Q25.293 -2.592 19.997 -7.887 Q14.702 -13.183 11.684 -20.226 Q8.666 -27.269 8.666 -35.277 Q8.666 -43.285 11.684 -50.281 Q14.702 -57.277 19.997 -62.573 Q25.293 -67.868 32.336 -70.886 Q39.379 -73.904 47.387 -73.904 Q55.395 -73.904 62.391 -70.886 Q69.387 -67.868 74.683 -62.573 Q79.978 -57.277 82.996 -50.257 Q86.014 -43.237 86.014 -35.255 Q86.014 -27.274 82.996 -20.228 Q79.978 -13.183 74.683 -7.887 Q69.387 -2.592 62.367 0.426 Q55.347 3.444 47.365 3.444 Z M47.34 -4.742 Q60.02 -4.742 68.924 -13.646 Q77.828 -22.55 77.828 -35.23 Q77.828 -47.91 68.924 -56.814 Q60.02 -65.718 47.34 -65.718 Q34.66 -65.718 25.756 -56.814 Q16.852 -47.91 16.852 -35.23 Q16.852 -22.55 25.756 -13.646 Q34.66 -4.742 47.34 -4.742 Z"/></g><g id="Regular-S" transform="matrix(1 0 0 1 1405.73 696)"><path d="M60.358 -37.597 Q62.824 -37.597 64.55 -39.323 Q66.276 -41.049 66.276 -43.514 Q66.276 -45.98 64.55 -47.706 Q62.824 -49.432 60.358 -49.432 Q57.893 -49.432 56.167 -47.706 Q54.441 -45.98 54.441 -43.514 Q54.441 -41.049 56.167 -39.323 Q57.893 -37.597 60.358 -37.597 Z M34.322 -37.597 Q36.787 -37.597 38.513 -39.323 Q40.239 -41.049 40.239 -43.514 Q40.239 -45.98 38.513 -47.706 Q36.787 -49.432 34.322 -49.432 Q31.856 -49.432 30.13 -47.706 Q28.404 -45.98 28.404 -43.514 Q28.404 -41.049 30.13 -39.323 Q31.856 -37.597 34.322 -37.597 Z M47.35 -30.496 Q40.535 -30.496 34.963 -26.65 Q29.39 -22.803 27.319 -16.294 H35.111 Q37.075 -19.578 40.333 -21.487 Q43.592 -23.395 47.34 -23.395 Q51.088 -23.395 54.347 -21.487 Q57.605 -19.578 59.57 -16.294 H67.361 Q65.29 -22.803 59.727 -26.65 Q54.165 -30.496 47.35 -30.496 Z M47.367 2.642 Q39.549 2.642 32.645 -0.317 Q25.741 -3.275 20.563 -8.453 Q15.386 -13.631 12.427 -20.531 Q9.468 -27.43 9.468 -35.275 Q9.468 -43.12 12.427 -49.974 Q15.386 -56.829 20.563 -62.007 Q25.741 -67.184 32.641 -70.143 Q39.54 -73.102 47.385 -73.102 Q55.23 -73.102 62.084 -70.143 Q68.939 -67.184 74.117 -62.007 Q79.294 -56.829 82.253 -49.952 Q85.212 -43.076 85.212 -35.257 Q85.212 -27.439 82.253 -20.535 Q79.294 -13.631 74.117 -8.453 Q68.939 -3.275 62.062 -0.317 Q55.186 2.642 47.367 2.642 Z M47.34 -4.459 Q60.161 -4.459 69.136 -13.434 Q78.111 -22.409 78.111 -35.23 Q78.111 -48.051 69.136 -57.026 Q60.161 -66.001 47.34 -66.001 Q34.519 -66.001 25.544 -57.026 Q16.569 -48.051 16.569 -35.23 Q16.569 -22.409 25.544 -13.434 Q34.519 -4.459 47.34 -4.459 Z"/></g><g id="Light-S" transform="matrix(1 0 0 1 1109.75 696)"><path d="M59.988 -38.356 Q62.141 -38.356 63.64 -39.863 Q65.138 -41.37 65.138 -43.523 Q65.138 -45.677 63.631 -47.175 Q62.123 -48.673 59.97 -48.673 Q57.817 -48.673 56.319 -47.166 Q54.82 -45.659 54.82 -43.506 Q54.82 -41.352 56.328 -39.854 Q57.835 -38.356 59.988 -38.356 Z M34.71 -38.356 Q36.863 -38.356 38.361 -39.863 Q39.86 -41.37 39.86 -43.523 Q39.86 -45.677 38.352 -47.175 Q36.845 -48.673 34.692 -48.673 Q32.539 -48.673 31.04 -47.166 Q29.542 -45.659 29.542 -43.506 Q29.542 -41.352 31.049 -39.854 Q32.557 -38.356 34.71 -38.356 Z M47.35 -30.496 Q41.066 -30.496 35.854 -26.991 Q30.642 -23.486 28.609 -17.508 H35.111 Q37.075 -20.792 40.333 -22.701 Q43.592 -24.609 47.34 -24.609 Q51.088 -24.609 54.347 -22.701 Q57.605 -20.792 59.57 -17.508 H66.071 Q64.038 -23.486 58.836 -26.991 Q53.634 -30.496 47.35 -30.496 Z M47.374 0.669 Q39.966 0.669 33.42 -2.134 Q26.875 -4.936 21.962 -9.847 Q17.049 -14.758 14.245 -21.296 Q11.441 -27.835 11.441 -35.269 Q11.441 -42.703 14.244 -49.199 Q17.046 -55.695 21.957 -60.608 Q26.868 -65.521 33.406 -68.325 Q39.945 -71.129 47.379 -71.129 Q54.813 -71.129 61.309 -68.326 Q67.805 -65.524 72.718 -60.613 Q77.631 -55.702 80.435 -49.187 Q83.239 -42.672 83.239 -35.264 Q83.239 -27.856 80.436 -21.31 Q77.634 -14.765 72.723 -9.852 Q67.812 -4.939 61.297 -2.135 Q54.782 0.669 47.374 0.669 Z M47.34 -4.459 Q60.161 -4.459 69.136 -13.434 Q78.111 -22.409 78.111 -35.23 Q78.111 -48.051 69.136 -57.026 Q60.161 -66.001 47.34 -66.001 Q34.519 -66.001 25.544 -57.026 Q16.569 -48.051 16.569 -35.23 Q16.569 -22.409 25.544 -13.434 Q34.519 -4.459 47.34 -4.459 Z"/></g><g id="Thin-S" transform="matrix(1 0 0 1 814.015 696)"><path d="M59.618 -39.114 Q61.459 -39.114 62.729 -40.403 Q64 -41.692 64 -43.532 Q64 -45.373 62.711 -46.644 Q61.423 -47.915 59.582 -47.915 Q57.741 -47.915 56.47 -46.626 Q55.2 -45.337 55.2 -43.497 Q55.2 -41.656 56.488 -40.385 Q57.777 -39.114 59.618 -39.114 Z M35.098 -39.114 Q36.939 -39.114 38.21 -40.403 Q39.48 -41.692 39.48 -43.532 Q39.48 -45.373 38.192 -46.644 Q36.903 -47.915 35.062 -47.915 Q33.221 -47.915 31.951 -46.626 Q30.68 -45.337 30.68 -43.497 Q30.68 -41.656 31.969 -40.385 Q33.257 -39.114 35.098 -39.114 Z M47.35 -30.496 Q41.597 -30.496 36.745 -27.332 Q31.894 -24.169 29.899 -18.722 H35.111 Q37.075 -22.006 40.333 -23.914 Q43.592 -25.823 47.34 -25.823 Q51.088 -25.823 54.347 -23.914 Q57.605 -22.006 59.57 -18.722 H64.781 Q62.786 -24.169 57.945 -27.332 Q53.103 -30.496 47.35 -30.496 Z M47.38 -1.303 Q40.383 -1.303 34.196 -3.95 Q28.008 -6.597 23.36 -11.241 Q18.712 -15.884 16.063 -22.061 Q13.413 -28.239 13.413 -35.262 Q13.413 -42.286 16.06 -48.424 Q18.707 -54.562 23.351 -59.21 Q27.994 -63.858 34.171 -66.507 Q40.349 -69.157 47.372 -69.157 Q54.396 -69.157 60.534 -66.51 Q66.672 -63.863 71.32 -59.219 Q75.968 -54.576 78.617 -48.422 Q81.267 -42.268 81.267 -35.27 Q81.267 -28.273 78.62 -22.086 Q75.973 -15.898 71.329 -11.25 Q66.686 -6.602 60.532 -3.953 Q54.378 -1.303 47.38 -1.303 Z M47.34 -4.459 Q60.161 -4.459 69.136 -13.434 Q78.111 -22.409 78.111 -35.23 Q78.111 -48.051 69.136 -57.026 Q60.161 -66.001 47.34 -66.001 Q34.519 -66.001 25.544 -57.026 Q16.569 -48.051 16.569 -35.23 Q16.569 -22.409 25.544 -13.434 Q34.519 -4.459 47.34 -4.459 Z"/></g><g id="Ultralight-S" transform="matrix(1 0 0 1 517.792 696)"><path d="M59.395 -39.569 Q61.049 -39.569 62.183 -40.727 Q63.317 -41.884 63.317 -43.538 Q63.317 -45.191 62.16 -46.325 Q61.002 -47.459 59.349 -47.459 Q57.696 -47.459 56.561 -46.302 Q55.427 -45.145 55.427 -43.491 Q55.427 -41.838 56.585 -40.704 Q57.742 -39.569 59.395 -39.569 Z M35.331 -39.569 Q36.984 -39.569 38.119 -40.727 Q39.253 -41.884 39.253 -43.538 Q39.253 -45.191 38.095 -46.325 Q36.938 -47.459 35.285 -47.459 Q33.631 -47.459 32.497 -46.302 Q31.363 -45.145 31.363 -43.491 Q31.363 -41.838 32.52 -40.704 Q33.678 -39.569 35.331 -39.569 Z M47.35 -30.496 Q41.916 -30.496 37.28 -27.537 Q32.645 -24.578 30.672 -19.45 H35.111 Q37.075 -22.734 40.333 -24.643 Q43.592 -26.551 47.34 -26.551 Q51.088 -26.551 54.347 -24.643 Q57.605 -22.734 59.57 -19.45 H64.008 Q62.035 -24.578 57.41 -27.537 Q52.784 -30.496 47.35 -30.496 Z M47.384 -2.486 Q40.634 -2.486 34.661 -5.04 Q28.688 -7.594 24.199 -12.077 Q19.71 -16.56 17.153 -22.52 Q14.597 -28.481 14.597 -35.258 Q14.597 -42.035 17.15 -47.958 Q19.704 -53.882 24.187 -58.371 Q28.67 -62.86 34.63 -65.417 Q40.591 -67.973 47.368 -67.973 Q54.145 -67.973 60.068 -65.42 Q65.992 -62.866 70.481 -58.383 Q74.97 -53.9 77.527 -47.963 Q80.084 -42.025 80.084 -35.274 Q80.084 -28.523 77.53 -22.551 Q74.976 -16.578 70.493 -12.089 Q66.01 -7.6 60.073 -5.043 Q54.135 -2.486 47.384 -2.486 Z M47.34 -4.459 Q60.161 -4.459 69.136 -13.434 Q78.111 -22.409 78.111 -35.23 Q78.111 -48.051 69.136 -57.026 Q60.161 -66.001 47.34 -66.001 Q34.519 -66.001 25.544 -57.026 Q16.569 -48.051 16.569 -35.23 Q16.569 -22.409 25.544 -13.434 Q34.519 -4.459 47.34 -4.459 Z"/></g></g></svg>